<svg xmlns="http://www.w3.org/2000/svg" version="1.1" xmlns:xlink="http://www.w3.org/1999/xlink" xmlns:svgjs="http://svgjs.dev/svgjs" width="1500" height="1731" viewBox="0 0 1500 1731"><g transform="matrix(1,0,0,1,-0.4336841090920416,0.7008097165991103)"><svg viewBox="0 0 214 247" data-background-color="#dedede" preserveAspectRatio="xMidYMid meet" height="1731" width="1500" xmlns="http://www.w3.org/2000/svg" xmlns:xlink="http://www.w3.org/1999/xlink"><g id="tight-bounds" transform="matrix(1,0,0,1,0.061872266230466266,-0.09999999999999432)"><svg viewBox="0 0 213.87625546753904 247.2" height="247.2" width="213.87625546753904"><g><svg viewBox="0 0 395.5199999999999 457.14538898330096" height="247.2" width="213.87625546753904"><g transform="matrix(1,0,0,1,0,385.1775280070679)"><svg viewBox="0 0 395.5199999999999 71.96786097623306" height="71.96786097623306" width="395.5199999999999"><g id="textblocktransform"><svg viewBox="0 0 395.5199999999999 71.96786097623306" height="71.96786097623306" width="395.5199999999999" id="textblock"><g><svg viewBox="0 0 395.5199999999999 71.96786097623306" height="71.96786097623306" width="395.5199999999999"><g transform="matrix(1,0,0,1,0,0)"><svg width="395.5199999999999" viewBox="2.25 -35 195.63 35.6" height="71.96786097623306" data-palette-color="#374151"><path d="M14.85-35Q17.5-35 19.53-34.08 21.55-33.15 23.55-31.25L23.55-31.25 21.05-28.7Q19.45-30.1 18.07-30.7 16.7-31.3 14.85-31.3L14.85-31.3Q11.4-31.3 9.22-28.1 7.05-24.9 7.05-17.25L7.05-17.25Q7.05-11.9 7.88-8.83 8.7-5.75 10.33-4.45 11.95-3.15 14.45-3.15L14.45-3.15Q17.15-3.15 19.4-4.65L19.4-4.65 19.4-15.35 14.7-15.35 14.2-19.05 23.8-19.05 23.8-2.45Q19.4 0.6 14.4 0.6L14.4 0.6Q2.25 0.6 2.25-17.25L2.25-17.25Q2.25-23.1 3.95-27.1 5.65-31.1 8.5-33.05 11.35-35 14.85-35L14.85-35ZM50.35 0L45.7 0 43.65-8.75 33.35-8.75 31.3 0 26.8 0 35.75-34.45 41.4-34.45 50.35 0ZM38.5-30.65L34.2-12.4 42.8-12.4 38.5-30.65ZM54.55-34.45L59.1-34.45 59.1-4 70.55-4 70.05 0 54.55 0 54.55-34.45ZM94.99 0L90.34 0 88.29-8.75 77.99-8.75 75.94 0 71.44 0 80.39-34.45 86.04-34.45 94.99 0ZM83.14-30.65L78.84-12.4 87.44-12.4 83.14-30.65ZM109.69-35Q112.14-35 113.99-34.18 115.84-33.35 117.69-31.65L117.69-31.65 115.34-28.9Q113.94-30.15 112.64-30.73 111.34-31.3 109.79-31.3L109.79-31.3Q102.44-31.3 102.44-17.25L102.44-17.25Q102.44-3.25 109.94-3.25L109.94-3.25Q111.64-3.25 112.92-3.93 114.19-4.6 115.54-5.85L115.54-5.85 117.99-3.2Q116.49-1.55 114.44-0.48 112.39 0.6 109.84 0.6L109.84 0.6Q104.29 0.6 100.97-3.9 97.64-8.4 97.64-17.25L97.64-17.25Q97.64-23.2 99.22-27.18 100.79-31.15 103.52-33.08 106.24-35 109.69-35L109.69-35ZM119.24-34.45L139.79-34.45 139.29-30.65 131.64-30.65 131.64 0 127.09 0 127.09-30.65 119.24-30.65 119.24-34.45ZM143.89-34.45L148.44-34.45 148.44 0 143.89 0 143.89-34.45ZM156.03-34.45L160.58-34.45 160.58 0 156.03 0 156.03-34.45ZM171.33-34.45L176.18-34.45 165.68-18.7 176.93 0 171.78 0 160.78-18.4 171.33-34.45ZM188.23-35Q190.98-35 193.11-34.02 195.23-33.05 197.03-31.05L197.03-31.05 194.63-28.45Q193.08-29.95 191.58-30.63 190.08-31.3 188.28-31.3L188.28-31.3Q186.13-31.3 184.81-29.93 183.48-28.55 183.48-26.3L183.48-26.3Q183.48-24.1 184.75-22.7 186.03-21.3 189.58-19.95L189.58-19.95Q193.68-18.4 195.78-16.1 197.88-13.8 197.88-9.55L197.88-9.55Q197.88-6.8 196.61-4.48 195.33-2.15 192.98-0.78 190.63 0.6 187.53 0.6L187.53 0.6Q184.43 0.6 182.03-0.55 179.63-1.7 177.68-3.85L177.68-3.85 180.13-6.45Q181.88-4.85 183.61-4 185.33-3.15 187.43-3.15L187.43-3.15Q190.03-3.15 191.58-4.85 193.13-6.55 193.13-9.45L193.13-9.45Q193.13-11.95 191.88-13.45 190.63-14.95 187.23-16.2L187.23-16.2Q182.88-17.85 180.86-20.2 178.83-22.55 178.83-26.1L178.83-26.1Q178.83-28.55 180.03-30.6 181.23-32.65 183.38-33.83 185.53-35 188.23-35L188.23-35Z" opacity="1" transform="matrix(1,0,0,1,0,0)" fill="#374151" class="wordmark-text-0" data-fill-palette-color="primary" id="text-0"></path></svg></g></svg></g></svg></g></svg></g><g transform="matrix(1,0,0,1,22.161120744291196,0)"><svg viewBox="0 0 351.19775851141753 351.19775851141753" height="351.19775851141753" width="351.19775851141753"><g><svg></svg></g><g id="icon-0"><svg viewBox="0 0 351.19775851141753 351.19775851141753" height="351.19775851141753" width="351.19775851141753"><g><path d="M0 175.599c0-96.981 78.618-175.599 175.599-175.599 96.981 0 175.599 78.618 175.599 175.599 0 96.981-78.618 175.599-175.599 175.599-96.981 0-175.599-78.618-175.599-175.599zM175.599 344.708c93.396 0 169.109-75.713 169.109-169.109 0-93.396-75.713-169.109-169.109-169.109-93.396 0-169.109 75.713-169.109 169.109 0 93.396 75.713 169.109 169.109 169.109z" data-fill-palette-color="accent" fill="#374151" stroke="transparent"></path><ellipse rx="173.8428904631517" ry="173.8428904631517" cx="175.59887925570877" cy="175.59887925570877" fill="#374151" stroke="transparent" stroke-width="0" fill-opacity="1" data-fill-palette-color="accent"></ellipse></g><g transform="matrix(1,0,0,1,83.52611350820276,73.3048473421086)"><svg viewBox="0 0 184.14553149501202 204.58806382720033" height="204.58806382720033" width="184.14553149501202"><g><svg xmlns:x="http://ns.adobe.com/Extensibility/1.0/" xmlns:i="http://ns.adobe.com/AdobeIllustrator/10.0/" xmlns:graph="http://ns.adobe.com/Graphs/1.0/" xmlns="http://www.w3.org/2000/svg" xmlns:xlink="http://www.w3.org/1999/xlink" version="1.1" x="0" y="0" viewBox="10.397000000000002 6 79.20700000000001 88" enable-background="new 0 0 100 100" xml:space="preserve" height="204.58806382720033" width="184.14553149501202" class="icon-cg-0" data-fill-palette-color="quaternary" id="cg-0"><g fill="#dedede" data-fill-palette-color="quaternary"><path d="M47.069 38.241c-7.292 0-13.224 5.932-13.224 13.224 0 7.292 5.932 13.225 13.224 13.225 7.292 0 13.224-5.933 13.224-13.225C60.293 44.173 54.36 38.241 47.069 38.241zM52.932 52.465c-0.553 0-1-0.447-1-1 0-2.681-2.182-4.861-4.863-4.861-0.552 0-1-0.448-1-1s0.448-1 1-1c3.784 0 6.863 3.078 6.863 6.861C53.932 52.018 53.484 52.465 52.932 52.465z" fill="#dedede" data-fill-palette-color="quaternary"></path><path d="M64.655 55.828c-2.443 0-4.431 1.987-4.431 4.431s1.987 4.431 4.431 4.431 4.431-1.987 4.431-4.431S67.099 55.828 64.655 55.828z" fill="#dedede" data-fill-palette-color="quaternary"></path><path d="M79.311 14.862c2.443 0 4.431-1.988 4.431-4.431S81.754 6 79.311 6s-4.432 1.988-4.432 4.431S76.867 14.862 79.311 14.862z" fill="#dedede" data-fill-palette-color="quaternary"></path><path d="M89.604 36.811c0-5.676-4.617-10.293-10.293-10.293-1.599 0-3.107 0.377-4.459 1.03-6.983-8.109-17.065-12.754-27.783-12.754-4.444 0-8.783 0.792-12.905 2.344-2.416-3.196-6.236-5.274-10.543-5.274-7.292 0-13.224 5.932-13.224 13.224 0 3.755 1.581 7.141 4.102 9.551-2.676 5.174-4.102 10.963-4.102 16.828 0 11.693 5.604 22.674 15.017 29.578-0.229 0.852-0.362 1.741-0.362 2.664C25.052 89.383 29.669 94 35.345 94c4.122 0 7.675-2.44 9.318-5.947 0.798 0.051 1.603 0.085 2.406 0.085 20.221 0 36.672-16.451 36.672-36.673 0-1.741-0.13-3.484-0.372-5.198C87.031 44.688 89.604 41.045 89.604 36.811zM79.311 32.879c2.167 0 3.931 1.764 3.931 3.931 0 0.552-0.447 1-1 1s-1-0.448-1-1c0-1.065-0.866-1.931-1.931-1.931-0.553 0-1-0.448-1-1S78.758 32.879 79.311 32.879zM23.621 18.224c3.784 0 6.862 3.079 6.862 6.862 0 0.552-0.448 1-1 1s-1-0.448-1-1c0-2.681-2.181-4.862-4.862-4.862-0.552 0-1-0.448-1-1S23.068 18.224 23.621 18.224zM38.276 84.707c-0.552 0-1-0.447-1-1 0-1.065-0.866-1.932-1.931-1.932-0.552 0-1-0.447-1-1s0.448-1 1-1c2.167 0 3.931 1.764 3.931 3.932C39.276 84.26 38.828 84.707 38.276 84.707zM80.741 51.465c0 18.567-15.105 33.673-33.672 33.673-0.512 0-1.025-0.014-1.537-0.037 0.062-0.457 0.106-0.92 0.106-1.394 0-5.676-4.618-10.293-10.293-10.293-3.66 0-6.871 1.926-8.697 4.812-8.32-6.36-13.251-16.247-13.251-26.761 0-5.213 1.226-10.361 3.531-14.993 1.966 1.16 4.25 1.838 6.693 1.838 7.292 0 13.224-5.932 13.224-13.224 0-1.894-0.407-3.692-1.127-5.322 3.635-1.303 7.448-1.971 11.352-1.971 9.727 0 18.881 4.168 25.284 11.454-2.044 1.882-3.335 4.572-3.335 7.563 0 5.676 4.617 10.293 10.293 10.293 0.386 0 0.765-0.025 1.14-0.067C80.641 48.499 80.741 49.983 80.741 51.465z" fill="#dedede" data-fill-palette-color="quaternary"></path></g></svg><g></g></g></svg></g></svg></g></svg></g><g></g></svg></g><defs></defs></svg><rect width="213.87625546753904" height="247.2" fill="none" stroke="none" visibility="hidden"></rect></g></svg></g></svg>