<?xml version="1.0" standalone="no"?>
<!DOCTYPE svg PUBLIC "-//W3C//DTD SVG 20010904//EN"
 "http://www.w3.org/TR/2001/REC-SVG-20010904/DTD/svg10.dtd">
<svg version="1.0" xmlns="http://www.w3.org/2000/svg"
 width="128.000000pt" height="128.000000pt" viewBox="0 0 128.000000 128.000000"
 preserveAspectRatio="xMidYMid meet">
<metadata>
Created by potrace 1.14, written by Peter Selinger 2001-2017
</metadata>
<g transform="translate(0.000000,128.000000) scale(0.100000,-0.100000)"
fill="#000000" stroke="none">
<path d="M944 1129 c-17 -19 -17 -23 -3 -47 8 -15 25 -28 38 -30 28 -4 61 24
58 48 -8 49 -60 66 -93 29z"/>
<path d="M301 1079 c-103 -22 -155 -130 -106 -223 23 -43 23 -43 5 -97 -53
-160 -19 -314 97 -439 44 -47 53 -64 53 -94 0 -97 136 -143 204 -69 17 18 37
28 63 30 64 5 100 12 145 30 165 64 275 229 274 408 -1 41 3 53 23 69 93 76
31 228 -88 214 -30 -4 -43 1 -81 33 -95 79 -207 115 -321 105 -39 -3 -78 -10
-88 -15 -13 -8 -26 -4 -52 15 -45 31 -86 42 -128 33z m68 -84 c24 -12 40 -39
41 -67 0 -19 -20 -6 -26 16 -4 15 -17 29 -36 35 -16 6 -27 15 -23 21 8 13 11
13 44 -5z m357 -2 c55 -18 118 -55 152 -89 22 -22 23 -24 7 -48 -22 -33 -25
-85 -8 -119 17 -33 68 -67 102 -67 23 0 24 -1 19 -72 -7 -96 -37 -171 -94
-236 -73 -83 -155 -126 -263 -137 l-49 -5 -7 40 c-10 59 -60 99 -120 96 -28
-2 -57 -11 -76 -25 l-31 -23 -25 24 c-41 37 -90 120 -109 183 -29 103 0 288
43 270 38 -16 92 -13 132 7 55 27 83 75 85 146 1 51 3 57 26 63 48 13 166 9
216 -8z m300 -185 c9 -30 -1 -32 -30 -5 -18 17 -23 26 -14 30 20 6 37 -3 44
-25z m-516 -560 c0 -23 -5 -23 -30 2 -28 28 -26 42 5 28 14 -6 25 -19 25 -30z"/>
<path d="M532 753 c-50 -24 -86 -92 -79 -150 6 -54 31 -90 82 -120 128 -72
273 68 209 204 -36 74 -134 105 -212 66z m122 -75 c28 -26 37 -59 19 -65 -8
-3 -13 4 -13 15 0 22 -20 42 -47 47 -10 2 -19 4 -21 4 -2 1 0 6 3 11 10 16 32
12 59 -12z"/>
<path d="M781 554 c-26 -19 -27 -45 -3 -74 14 -17 25 -21 44 -17 41 11 52 57
23 95 -8 10 -46 8 -64 -4z"/>
</g>
</svg>
